<?xml version="1.0" encoding="utf-8"?>
<!-- Generator: Adobe Illustrator 18.1.1, SVG Export Plug-In . SVG Version: 6.00 Build 0)  -->
<svg version="1.1" id="Layer_1" xmlns="http://www.w3.org/2000/svg" xmlns:xlink="http://www.w3.org/1999/xlink" x="0px" y="0px"
	 viewBox="0 0 1033.4 1036.4" enable-background="new 0 0 1033.4 1036.4" xml:space="preserve">
<g>
	<linearGradient id="SVGID_1_" gradientUnits="userSpaceOnUse" x1="518.7086" y1="10.7431" x2="518.7086" y2="1028.2042">
		<stop  offset="0.2217" style="stop-color:#832790"/>
		<stop  offset="1" style="stop-color:#4E277B"/>
	</linearGradient>
	<circle fill="url(#SVGID_1_)" cx="518.7" cy="519.5" r="508.7"/>
	<path fill="#646464" d="M245.6,761.7l-0.1,0.2c-0.1-0.2-0.2-0.4-0.3-0.6C245.5,761.5,245.6,761.7,245.6,761.7z"/>
	<path fill="#646464" d="M201.1,739.8c-1.1,2.2-4.9,2.6-8.6,0.8c-3.7-1.8-5.8-5-4.7-7.2c1.1-2.2,4.9-2.6,8.6-0.8
		C200,734.4,202.1,737.6,201.1,739.8z"/>
	<path fill="#646464" d="M220.3,829.1c-2.5-4.9-4.5-10-5.7-15.2C218.8,824,220.1,828.6,220.3,829.1z"/>
	<path fill="#646464" d="M221.4,760.6c-2.1,1.3-5.5-0.4-7.7-3.8c-2.2-3.5-2.2-7.3-0.1-8.6c2.1-1.3,5.5,0.4,7.7,3.8
		C223.4,755.4,223.5,759.3,221.4,760.6z"/>
	<path fill="#646464" d="M242.6,792.9c-2.5,1.6-6.6-0.5-9.1-4.5c-2.5-4-2.6-8.6-0.1-10.2c2.5-1.6,6.6,0.5,9.1,4.5
		C245,786.8,245,791.3,242.6,792.9z"/>
	<path fill="#646464" d="M271.4,796.4c-1.5-1.2-2.9-2.5-4.4-3.9C268.6,793.6,270.1,794.9,271.4,796.4z"/>
	<path fill="#646464" d="M270.6,818.6c-2,2.2-6.9,0.9-10.9-2.8c-4-3.7-5.7-8.5-3.7-10.7c2-2.2,6.9-0.9,10.9,2.8
		C270.9,811.7,272.5,816.5,270.6,818.6z"/>
	<path fill="#646464" d="M308.3,834.7c-0.5,2.9-5.4,4.4-10.8,3.4c-5.4-1-9.3-4.2-8.8-7c0.5-2.9,5.3-4.4,10.8-3.4
		C304.8,828.7,308.8,831.8,308.3,834.7z"/>
	<path fill="#646464" d="M348.7,838.2c0,2.9-4.5,5.3-10,5.3c-5.5,0-10-2.4-10-5.3s4.4-5.3,10-5.3
		C344.2,832.9,348.7,835.3,348.7,838.2z"/>
	<path fill="#646464" d="M349.2,888.8c-0.5,0-0.9,0-1.4,0c-2.7,0-5.4,0-8.1,0c1.7-0.2,3.3-0.2,5-0.2
		C346.3,888.7,347.7,888.7,349.2,888.8z"/>
	<path fill="#646464" d="M388.3,834.4c0,2.9-4.5,5.3-10,5.3c-5.5,0-10-2.4-10-5.3c0-2.9,4.5-5.3,10-5.3
		C383.8,829.1,388.3,831.5,388.3,834.4z"/>
	<path opacity="0.49" fill="#646464" d="M201.1,739.8c-1.1,2.2-4.9,2.6-8.6,0.8c-3.7-1.8-5.8-5-4.7-7.2c1.1-2.2,4.9-2.6,8.6-0.8
		C200,734.4,202.1,737.6,201.1,739.8z"/>
	<path opacity="0.49" fill="#646464" d="M221.4,760.6c-2.1,1.3-5.5-0.4-7.7-3.8c-2.2-3.5-2.2-7.3-0.1-8.6c2.1-1.3,5.5,0.4,7.7,3.8
		C223.4,755.4,223.5,759.3,221.4,760.6z"/>
	<path opacity="0.49" fill="#646464" d="M242.6,792.9c-2.5,1.6-6.6-0.5-9.1-4.5c-2.5-4-2.6-8.6-0.1-10.2c2.5-1.6,6.6,0.5,9.1,4.5
		C245,786.8,245,791.3,242.6,792.9z"/>
	<path opacity="0.49" fill="#646464" d="M270.6,818.6c-2,2.2-6.9,0.9-10.9-2.8c-4-3.7-5.7-8.5-3.7-10.7c2-2.2,6.9-0.9,10.9,2.8
		C270.9,811.7,272.5,816.5,270.6,818.6z"/>
	<path opacity="0.49" fill="#646464" d="M308.3,834.7c-0.5,2.9-5.4,4.4-10.8,3.4c-5.4-1-9.3-4.2-8.8-7c0.5-2.9,5.3-4.4,10.8-3.4
		C304.8,828.7,308.8,831.8,308.3,834.7z"/>
	<path opacity="0.49" fill="#646464" d="M348.7,838.2c0,2.9-4.5,5.3-10,5.3c-5.5,0-10-2.4-10-5.3s4.4-5.3,10-5.3
		C344.2,832.9,348.7,835.3,348.7,838.2z"/>
	<path opacity="0.49" fill="#646464" d="M349.2,888.8c-0.5,0-0.9,0-1.4,0c-2.7,0-5.4,0-8.1,0c1.7-0.2,3.3-0.2,5-0.2
		C346.3,888.7,347.7,888.7,349.2,888.8z"/>
	<path opacity="0.49" fill="#646464" d="M388.3,834.4c0,2.9-4.5,5.3-10,5.3c-5.5,0-10-2.4-10-5.3c0-2.9,4.5-5.3,10-5.3
		C383.8,829.1,388.3,831.5,388.3,834.4z"/>
	<path fill="#646464" d="M271.4,796.4c-1.5-1.2-2.9-2.5-4.4-3.9C268.6,793.6,270.1,794.9,271.4,796.4z"/>
	<path fill="#646464" d="M220.3,829.1c-2.5-4.9-4.5-10-5.7-15.2C218.8,824,220.1,828.6,220.3,829.1z"/>
	<path fill="#646464" d="M245.6,761.7l-0.1,0.2c-0.1-0.2-0.2-0.4-0.3-0.6C245.5,761.5,245.6,761.7,245.6,761.7z"/>
	<path fill="#646464" d="M271.4,796.4c-1.5-1.2-2.9-2.5-4.4-3.9C268.6,793.6,270.1,794.9,271.4,796.4z"/>
	<path fill="#646464" d="M245.6,761.7l-0.1,0.2c-0.1-0.2-0.2-0.4-0.3-0.6C245.5,761.5,245.6,761.7,245.6,761.7z"/>
	<path fill="#646464" d="M271.4,796.4c-1.5-1.2-2.9-2.5-4.4-3.9C268.6,793.6,270.1,794.9,271.4,796.4z"/>
	<path fill="#646464" d="M245.6,761.7l-0.1,0.2c-0.1-0.2-0.2-0.4-0.3-0.6C245.5,761.5,245.6,761.7,245.6,761.7z"/>
	<linearGradient id="SVGID_2_" gradientUnits="userSpaceOnUse" x1="368.3748" y1="834.4464" x2="388.2859" y2="834.4464">
		<stop  offset="0.3054" style="stop-color:#832790"/>
		<stop  offset="1" style="stop-color:#4E277B"/>
	</linearGradient>
	<path fill="url(#SVGID_2_)" d="M388.3,834.4c0,2.9-4.5,5.3-10,5.3c-5.5,0-10-2.4-10-5.3c0-2.9,4.5-5.3,10-5.3
		C383.8,829.1,388.3,831.5,388.3,834.4z"/>
	<linearGradient id="SVGID_3_" gradientUnits="userSpaceOnUse" x1="328.778" y1="838.2162" x2="348.6892" y2="838.2162">
		<stop  offset="0.3054" style="stop-color:#832790"/>
		<stop  offset="1" style="stop-color:#4E277B"/>
	</linearGradient>
	<path fill="url(#SVGID_3_)" d="M348.7,838.2c0,2.9-4.5,5.3-10,5.3c-5.5,0-10-2.4-10-5.3s4.4-5.3,10-5.3
		C344.2,832.9,348.7,835.3,348.7,838.2z"/>
	<linearGradient id="SVGID_4_" gradientUnits="userSpaceOnUse" x1="288.6291" y1="832.8939" x2="308.3042" y2="832.8939">
		<stop  offset="0.3054" style="stop-color:#832790"/>
		<stop  offset="1" style="stop-color:#4E277B"/>
	</linearGradient>
	<path fill="url(#SVGID_4_)" d="M308.3,834.7c-0.5,2.9-5.4,4.4-10.8,3.4c-5.4-1-9.3-4.2-8.8-7c0.5-2.9,5.3-4.4,10.8-3.4
		C304.8,828.7,308.8,831.8,308.3,834.7z"/>
	<linearGradient id="SVGID_5_" gradientUnits="userSpaceOnUse" x1="255.0634" y1="811.8872" x2="271.3972" y2="811.8872">
		<stop  offset="0.3054" style="stop-color:#832790"/>
		<stop  offset="1" style="stop-color:#4E277B"/>
	</linearGradient>
	<path fill="url(#SVGID_5_)" d="M270.6,818.6c-2,2.2-6.9,0.9-10.9-2.8c-4-3.7-5.7-8.5-3.7-10.7c2-2.2,6.9-0.9,10.9,2.8
		C270.9,811.7,272.5,816.5,270.6,818.6z"/>
	<linearGradient id="SVGID_6_" gradientUnits="userSpaceOnUse" x1="231.5033" y1="785.5512" x2="244.3965" y2="785.5512">
		<stop  offset="0.3054" style="stop-color:#832790"/>
		<stop  offset="1" style="stop-color:#4E277B"/>
	</linearGradient>
	<path fill="url(#SVGID_6_)" d="M242.6,792.9c-2.5,1.6-6.6-0.5-9.1-4.5c-2.5-4-2.6-8.6-0.1-10.2c2.5-1.6,6.6,0.5,9.1,4.5
		C245,786.8,245,791.3,242.6,792.9z"/>
	<linearGradient id="SVGID_7_" gradientUnits="userSpaceOnUse" x1="212.0049" y1="754.3569" x2="222.8963" y2="754.3569">
		<stop  offset="0.3054" style="stop-color:#832790"/>
		<stop  offset="1" style="stop-color:#4E277B"/>
	</linearGradient>
	<path fill="url(#SVGID_7_)" d="M221.4,760.6c-2.1,1.3-5.5-0.4-7.7-3.8c-2.2-3.5-2.2-7.3-0.1-8.6c2.1-1.3,5.5,0.4,7.7,3.8
		C223.4,755.4,223.5,759.3,221.4,760.6z"/>
	<linearGradient id="SVGID_8_" gradientUnits="userSpaceOnUse" x1="187.5263" y1="736.6559" x2="201.3568" y2="736.6559">
		<stop  offset="0.3054" style="stop-color:#832790"/>
		<stop  offset="1" style="stop-color:#4E277B"/>
	</linearGradient>
	<path fill="url(#SVGID_8_)" d="M201.1,739.8c-1.1,2.2-4.9,2.6-8.6,0.8c-3.7-1.8-5.8-5-4.7-7.2c1.1-2.2,4.9-2.6,8.6-0.8
		C200,734.4,202.1,737.6,201.1,739.8z"/>
	<path opacity="0.18" fill="#646464" d="M349.2,888.8c-0.5,0-0.9,0-1.4,0c-2.7,0-5.4,0-8.1,0c1.7-0.2,3.3-0.2,5-0.2
		C346.3,888.7,347.7,888.7,349.2,888.8z"/>
	<path fill="#F2F2F2" d="M790.3,357.5c5.8-10.9,20.5-45.6,4.4-103.4c-5.3-19.2-8.6-26.1-9.3-33.4s-23.6-3.2-32.2-1.9
		c-8.6,1.3-57,9.4-109,53.7c-38-11.9-79.6-18.4-123.1-18.4c-45.6,0-89.7,6.5-130.1,18.6l0,0c-52-44.5-100.5-52.6-109.2-53.9
		c-8.6-1.3-31.6-5.4-32.2,1.9c-0.7,7.3-4,14.2-9.3,33.4c-15.6,56-2.7,93.1,3.5,105.3c-0.3,0.3-0.6,0.7-0.9,1
		c-34.9,39.9-55.1,94.2-55.1,145.9c0,54.3,16.9,114.2,55.1,155.3c4.7,5.1,7.7,10.9,13,15.5c15.8,13.5,34.4,26.4,54.6,35.8
		c31.5,14.6,69.2,22.2,107.7,28.1c2.7,0.4,3.9,3.6,2.2,5.7c-8.9,10.7-25,24.9-30.1,57.1c-0.7,4.7-4.4,8.4-8.8,10.1
		c-12.3,4.7-25.8,7.2-40,7.2c-27.1,0-51.8-9.4-70.2-24.8c-1.5-1.2-2.9-2.5-4.4-3.9c-8.8-8.3-29-39.8-32.1-44
		c-8.6-11.9-21.7-23.2-32.5-27c-18.6-6.5-36.4-10.7-45.6-8.4c-0.1,0-0.1,0-0.2,0.1c-0.5,0-0.9-0.1-1.4-0.1
		c-7.5,0-13.6,6.1-13.6,13.6c0,5.8,3.7,10.8,8.8,12.7c2.8,2.7,6.9,6.1,12.5,9.4c11.5,6.6,30.8,21,42.7,45.8
		c3.8,7.9,6.7,14.2,8.8,19.3c4.3,10.1,5.6,14.7,5.7,15.2c0,0,0,0,0,0v0c17.7,34.4,55.9,58.8,119.4,59.7c1.7-0.2,3.3-0.2,5-0.2
		c1.5,0,3,0.1,4.4,0.2c13.7-0.4,27.1-3.1,39.5-5.7l0.1,28.1l0.1,63.1c0,7.8-3.3,15.4-9.3,20.4c-5.6,4.7-12.1,8.3-19.2,10.5
		c10.2,3.3,20.6,6.4,31.1,9c40.4,10.4,82.8,15.9,126.5,15.9c43.2,0,85.1-5.4,125.1-15.5c10.8-2.7,21.4-5.8,31.9-9.2
		c-7.5-2.2-14.4-6-20.3-11c-5.6-4.8-8.9-11.8-8.9-19.2V817c1.1-31.6-20.5-59.7-31.4-72.2c-1.1-1.3-0.4-3.4,1.4-3.7
		c53.1-8.2,95.5-16.6,139.5-45.6c64.1-42.2,92.3-111.6,92.3-190.5C847.6,451.5,827.5,398.3,790.3,357.5z M201.1,739.8
		c-1.1,2.2-4.9,2.6-8.6,0.8c-3.7-1.8-5.8-5-4.7-7.2c1.1-2.2,4.9-2.6,8.6-0.8C200,734.4,202.1,737.6,201.1,739.8z M221.4,760.6
		c-2.1,1.3-5.5-0.4-7.7-3.8c-2.2-3.5-2.2-7.3-0.1-8.6c2.1-1.3,5.5,0.4,7.7,3.8C223.4,755.4,223.5,759.3,221.4,760.6z M242.6,792.9
		c-2.5,1.6-6.6-0.5-9.1-4.5c-2.5-4-2.6-8.6-0.1-10.2c2.5-1.6,6.6,0.5,9.1,4.5C245,786.8,245,791.3,242.6,792.9z M270.6,818.6
		c-2,2.2-6.9,0.9-10.9-2.8c-4-3.7-5.7-8.5-3.7-10.7c2-2.2,6.9-0.9,10.9,2.8C270.9,811.7,272.5,816.5,270.6,818.6z M308.3,834.7
		c-0.5,2.9-5.4,4.4-10.8,3.4c-5.4-1-9.3-4.2-8.8-7c0.5-2.9,5.3-4.4,10.8-3.4C304.8,828.7,308.8,831.8,308.3,834.7z M338.7,843.5
		c-5.5,0-10-2.4-10-5.3s4.4-5.3,10-5.3c5.5,0,10,2.4,10,5.3S344.2,843.5,338.7,843.5z M378.3,839.8c-5.5,0-10-2.4-10-5.3
		c0-2.9,4.5-5.3,10-5.3c5.5,0,10,2.4,10,5.3C388.3,837.4,383.8,839.8,378.3,839.8z"/>
</g>
</svg>
