<svg id="black" xmlns="http://www.w3.org/2000/svg" width="1920" height="1080" viewBox="0 0 1920 1080">
  <defs>
    <style>
      .cls-1 {
        fill-rule: evenodd;
      }
    </style>
  </defs>
  <path id="QUBIC_TEXT_BLACK" data-name="QUBIC TEXT BLACK" class="cls-1" d="M109.288,481.436L270.88,320.175a83.056,83.056,0,0,1,117.289,0L549.761,481.436a82.645,82.645,0,0,1,0,117.047L388.169,759.743a83.056,83.056,0,0,1-117.289,0L109.288,598.483A82.645,82.645,0,0,1,109.288,481.436Zm137.631,40.319L311,457.809a25.671,25.671,0,0,1,36.253,0l64.078,63.946a25.544,25.544,0,0,1,0,36.178l-64.078,63.946a25.673,25.673,0,0,1-36.253,0l-64.077-63.946A25.544,25.544,0,0,1,246.919,521.755Zm702.638,122.03h-80.9v-0.771a94.218,94.218,0,0,0,26.774-18.492,109.341,109.341,0,0,0,19.648-26.2,130.211,130.211,0,0,0,11.942-31.4,144.777,144.777,0,0,0,4.045-34.094q0-29.272-10.979-54.126a136.054,136.054,0,0,0-29.856-43.148,138.668,138.668,0,0,0-44.111-28.7,140.629,140.629,0,0,0-54.126-10.4q-30.048,0-55.667,10.595a135.872,135.872,0,0,0-74.545,73.966Q650.992,506.645,651,536.687q0,30.438,11.172,56.053A135.3,135.3,0,0,0,692.6,636.85a139.762,139.762,0,0,0,45.073,28.893,144.937,144.937,0,0,0,54.7,10.4H949.557v-32.36ZM750,633a96.879,96.879,0,0,1-31.783-23.115,104.8,104.8,0,0,1-20.61-34.286,119.249,119.249,0,0,1-7.32-41.992,103.5,103.5,0,0,1,7.705-39.872,101.832,101.832,0,0,1,21.188-32.553,100.5,100.5,0,0,1,31.783-21.959,97.477,97.477,0,0,1,39.872-8.09,98.615,98.615,0,0,1,93.421,62.8,108.381,108.381,0,0,1,7.513,40.45,119.379,119.379,0,0,1-7.32,41.991,102.728,102.728,0,0,1-20.61,34.094,95.428,95.428,0,0,1-31.975,22.729,100.074,100.074,0,0,1-41.029,8.283A96.806,96.806,0,0,1,750,633Zm233.456-229.6V576.367q0,23.892,8.09,43.34a103.054,103.054,0,0,0,22.342,33.709,98.5,98.5,0,0,0,33.52,21.958,116.181,116.181,0,0,0,83.21,0,98.691,98.691,0,0,0,33.52-21.958,103.143,103.143,0,0,0,22.34-33.709q8.085-19.449,8.09-43.34V403.394h-36.98v167.2a107.337,107.337,0,0,1-3.47,26.389,76.2,76.2,0,0,1-11.56,25.233,62.737,62.737,0,0,1-21.19,18.877q-13.095,7.323-32.36,7.319t-32.36-7.319a62.7,62.7,0,0,1-21.18-18.877,76.2,76.2,0,0,1-11.56-25.233,107.337,107.337,0,0,1-3.47-26.389v-167.2H983.458ZM1259.68,676.145h93.61a134.125,134.125,0,0,0,37.37-5.008,95.5,95.5,0,0,0,30.43-14.639A70.091,70.091,0,0,0,1441.7,632.8q7.515-14.058,7.52-32.553a70.716,70.716,0,0,0-17.15-46.807,63.3,63.3,0,0,0-18.68-14.639,57.686,57.686,0,0,0-23.12-6.356v-0.771q20.805-6.934,33.9-21.766t13.1-38.331q0-17.337-6.35-30.242a58.488,58.488,0,0,0-17.34-21.188,77.648,77.648,0,0,0-26.2-12.521,122.413,122.413,0,0,0-32.93-4.237h-94.77V676.145Zm36.98-240.391h58.17q22.335,0,32.75,11.943a41.467,41.467,0,0,1,10.4,28.122q0,11.178-4.05,18.877a36.008,36.008,0,0,1-10.98,12.713,43.961,43.961,0,0,1-16.18,7.127,87.621,87.621,0,0,1-19.64,2.119h-50.47v-80.9Zm0,113.261h54.7q26.97,0,42.77,12.135,15.78,12.135,15.79,36.406,0,14.644-6.16,23.5a47.414,47.414,0,0,1-15.03,14.062,55.9,55.9,0,0,1-19.07,6.934,112.4,112.4,0,0,1-18.68,1.734h-54.32v-94.77Zm205.72,127.13h36.98V403.394h-36.98V676.145Zm327.84-237.309a98.916,98.916,0,0,0-42.57-31.975,141.542,141.542,0,0,0-52.97-10.4q-31.59,0-57.79,10.787a130.075,130.075,0,0,0-44.88,30.242,137.946,137.946,0,0,0-29.08,46.229q-10.41,26.779-10.4,58.364a141.731,141.731,0,0,0,81.86,128.67q25.995,12.325,58.36,12.328,23.505,0,41.42-5.971a144.582,144.582,0,0,0,30.62-13.869,108.21,108.21,0,0,0,20.42-15.8A124.237,124.237,0,0,0,1836,635.309l-31.21-23.5a88.449,88.449,0,0,1-30.05,26.967q-17.715,9.635-41.22,9.631-23.88,0-42.76-8.475a93.706,93.706,0,0,1-31.97-23.114,102.128,102.128,0,0,1-20.04-33.9,119.675,119.675,0,0,1-6.93-40.835,126.388,126.388,0,0,1,7.32-43.34,107.946,107.946,0,0,1,20.61-35.25,96.176,96.176,0,0,1,31.97-23.692q18.69-8.668,41.8-8.668a87.229,87.229,0,0,1,36.6,8.09,76.347,76.347,0,0,1,29.28,23.115Z"/>
</svg>