<?xml version="1.0" encoding="utf-8"?>
<!-- Generator: Adobe Illustrator 18.1.1, SVG Export Plug-In . SVG Version: 6.00 Build 0)  -->
<svg version="1.1" id="Layer_1" xmlns="http://www.w3.org/2000/svg" xmlns:xlink="http://www.w3.org/1999/xlink" x="0px" y="0px"
	 viewBox="0 0 1080 1080" enable-background="new 0 0 1080 1080" xml:space="preserve">
<path d="M540.9,1027.8c-45.9-0.9-85.2-17.1-117.6-49.5C367.2,922.2,311.1,866.1,255.1,810C205,759.9,154.9,709.8,104.8,659.8
	c-37.4-37.4-54.3-82.4-49.6-135c3.6-39.4,20.2-73.1,48.2-101.2c46.4-46.4,92.9-92.9,139.3-139.3c59.7-59.7,119.5-119.5,179.2-179.2
	c37.5-37.5,82.6-54.6,135.4-49.8c39.6,3.6,73.4,20.4,101.5,48.6c84.4,84.6,168.9,169.1,253.3,253.6c21.9,21.9,43.9,43.7,65.8,65.7
	c37,37.2,53.6,82.1,48.8,134.3c-3.6,39.6-20.5,73.3-48.7,101.5C905.6,731.3,833.3,803.7,761,876.1c-34.3,34.3-68.5,68.7-102.9,102.9
	C625.7,1011.1,586.4,1027,540.9,1027.8z M539.2,719.3c15.8-0.1,28-5.7,38.2-16c41.7-41.7,83.5-83.4,125.2-125.1
	c21.9-21.9,21.9-53,0.2-74.9c-14.1-14.2-28.3-28.3-42.4-42.4c-27.8-27.8-55.5-55.7-83.5-83.4c-20.7-20.5-52-21.2-72.3-1.1
	c-43.1,42.7-85.9,85.6-128.6,128.7c-19.7,19.9-19.6,51.3,0.1,71.2c42.6,43,85.4,85.6,128.3,128.3
	C514.3,714.6,526.5,719.4,539.2,719.3z"/>
</svg>
